<svg width="16" height="16" viewBox="0 0 20 21" fill="none" xmlns="http://www.w3.org/2000/svg">
<path fill-rule="evenodd" clip-rule="evenodd" d="M5.98174 0.5C6.39785 0.5 6.73516 0.846145 6.73516 1.27313V1.5241C6.78427 1.51128 6.83357 1.4989 6.88305 1.48699C8.93321 0.993511 11.0668 0.993511 13.1169 1.48699C13.1664 1.4989 13.2156 1.51127 13.2648 1.5241V1.27313C13.2648 0.846145 13.6021 0.5 14.0182 0.5C14.4343 0.5 14.7716 0.846145 14.7716 1.27313V2.08779C16.9196 3.15258 18.5251 5.16577 19.0838 7.60996C19.5646 9.71378 19.5646 11.9031 19.0838 14.0069C18.3893 17.045 16.0775 19.4172 13.1169 20.1299C11.0668 20.6233 8.93321 20.6233 6.88305 20.1299C3.9224 19.4172 1.61068 17.0451 0.916217 14.0069C0.435317 11.9031 0.435317 9.71378 0.916217 7.60996C1.47493 5.16576 3.08035 3.15258 5.22833 2.08779V1.27313C5.22833 0.846145 5.56564 0.5 5.98174 0.5ZM8.91932 8.15325C9.15476 7.91172 9.15476 7.5201 8.91932 7.27856C8.68398 7.03701 8.30232 7.03701 8.06698 7.27856L6.48403 8.90289L5.90567 8.30944C5.67028 8.06785 5.28865 8.06785 5.05327 8.30944C4.81788 8.55089 4.81788 8.94255 5.05327 9.18411L6.05783 10.215C6.29322 10.4564 6.67484 10.4564 6.91023 10.215L8.91932 8.15325ZM11.0045 8.64367C10.6716 8.64367 10.4018 8.92056 10.4018 9.26222C10.4018 9.60378 10.6716 9.88067 11.0045 9.88067H14.5205C14.8534 9.88067 15.1232 9.60378 15.1232 9.26222C15.1232 8.92056 14.8534 8.64367 14.5205 8.64367H11.0045ZM8.91932 13.3074C9.15476 13.0659 9.15476 12.6743 8.91932 12.4328C8.68398 12.1912 8.30232 12.1912 8.06698 12.4328L6.48403 14.0571L5.90567 13.4637C5.67028 13.2221 5.28865 13.2221 5.05327 13.4637C4.81788 13.7051 4.81788 14.0968 5.05327 14.3383L6.05783 15.3691C6.29322 15.6107 6.67484 15.6107 6.91023 15.3691L8.91932 13.3074ZM11.0045 13.7979C10.6716 13.7979 10.4018 14.0748 10.4018 14.4164C10.4018 14.758 10.6716 15.0349 11.0045 15.0349H14.5205C14.8534 15.0349 15.1232 14.758 15.1232 14.4164C15.1232 14.0748 14.8534 13.7979 14.5205 13.7979H11.0045Z" fill="#363853"/>
</svg>
